<svg width="118" height="15" viewBox="0 0 118 15" fill="none" xmlns="http://www.w3.org/2000/svg">
<path d="M0.676392 14.7368V1.26638H4.82113C6.00534 1.26638 7.06311 1.53467 7.99444 2.07127C8.93194 2.6017 9.66282 3.36033 10.1871 4.34717C10.7113 5.32785 10.9735 6.44421 10.9735 7.69627V8.31613C10.9735 9.56819 10.7144 10.6815 10.1963 11.656C9.68441 12.6305 8.9597 13.386 8.0222 13.9226C7.0847 14.4592 6.02693 14.7306 4.84888 14.7368H0.676392ZM3.45188 3.51453V12.5071H4.79337C5.8789 12.5071 6.70846 12.1525 7.28207 11.4432C7.85567 10.7339 8.14864 9.7193 8.16097 8.39939V7.68702C8.16097 6.31777 7.87726 5.28159 7.30982 4.57847C6.74239 3.86917 5.91282 3.51453 4.82113 3.51453H3.45188Z" fill="#2E353D"/>
<path d="M17.4311 14.9218C15.9632 14.9218 14.7666 14.4716 13.8415 13.5711C12.9225 12.6706 12.463 11.4709 12.463 9.97217V9.71313C12.463 8.70778 12.6573 7.81037 13.0458 7.0209C13.4344 6.22526 13.9833 5.61465 14.6926 5.18907C15.4081 4.75733 16.2222 4.54146 17.1351 4.54146C18.5043 4.54146 19.5806 4.9732 20.3639 5.83669C21.1534 6.70018 21.5481 7.92448 21.5481 9.50959V10.6013H15.1737C15.2601 11.2551 15.5191 11.7793 15.9509 12.1741C16.3888 12.5688 16.9408 12.7662 17.6069 12.7662C18.6369 12.7662 19.4418 12.393 20.0216 11.6467L21.3353 13.1177C20.9344 13.6852 20.3916 14.1292 19.707 14.45C19.0224 14.7645 18.2638 14.9218 17.4311 14.9218ZM17.1258 6.70634C16.5954 6.70634 16.1636 6.88521 15.8306 7.24294C15.5037 7.60067 15.294 8.11259 15.2015 8.77871H18.9206V8.56592C18.9083 7.97382 18.7479 7.5174 18.4396 7.19668C18.1312 6.86979 17.6933 6.70634 17.1258 6.70634Z" fill="#2E353D"/>
<path d="M27.2379 12.7662C27.7313 12.7662 28.1322 12.6305 28.4406 12.3591C28.749 12.0877 28.9093 11.7269 28.9217 11.2767H31.4289C31.4227 11.9551 31.2377 12.5781 30.8738 13.1455C30.5099 13.7068 30.0103 14.1447 29.375 14.4592C28.7459 14.7676 28.0489 14.9218 27.2841 14.9218C25.8532 14.9218 24.7245 14.4685 23.898 13.5618C23.0715 12.649 22.6583 11.3908 22.6583 9.78714V9.61136C22.6583 8.06942 23.0685 6.83895 23.8888 5.91995C24.7091 5.00096 25.8347 4.54146 27.2656 4.54146C28.5177 4.54146 29.5199 4.89919 30.2724 5.61465C31.031 6.32394 31.4165 7.27069 31.4289 8.4549H28.9217C28.9093 7.93681 28.749 7.5174 28.4406 7.19668C28.1322 6.86979 27.7251 6.70634 27.2194 6.70634C26.5964 6.70634 26.1246 6.93455 25.8039 7.39097C25.4893 7.84121 25.332 8.57518 25.332 9.59286V9.87041C25.332 10.9004 25.4893 11.6406 25.8039 12.0908C26.1184 12.541 26.5964 12.7662 27.2379 12.7662Z" fill="#2E353D"/>
<path d="M32.5391 9.63912C32.5391 8.64611 32.7303 7.76103 33.1127 6.98389C33.4951 6.20676 34.044 5.6054 34.7594 5.17982C35.4811 4.75425 36.3168 4.54146 37.2666 4.54146C38.6174 4.54146 39.7183 4.9547 40.5695 5.78118C41.4268 6.60766 41.9048 7.73019 42.0035 9.14878L42.022 9.8334C42.022 11.3692 41.5933 12.6027 40.736 13.5341C39.8787 14.4592 38.7284 14.9218 37.2851 14.9218C35.8419 14.9218 34.6885 14.4592 33.825 13.5341C32.9677 12.6089 32.5391 11.3507 32.5391 9.75939V9.63912ZM35.2128 9.8334C35.2128 10.7832 35.3916 11.511 35.7494 12.0168C36.1071 12.5164 36.619 12.7662 37.2851 12.7662C37.9328 12.7662 38.4385 12.5195 38.8024 12.026C39.1663 11.5265 39.3483 10.7308 39.3483 9.63912C39.3483 8.70778 39.1663 7.98615 38.8024 7.47423C38.4385 6.96231 37.9266 6.70634 37.2666 6.70634C36.6129 6.70634 36.1071 6.96231 35.7494 7.47423C35.3916 7.97999 35.2128 8.76638 35.2128 9.8334Z" fill="#2E353D"/>
<path d="M49.2938 7.23369C48.9299 7.18435 48.6092 7.15967 48.3316 7.15967C47.3201 7.15967 46.6571 7.50199 46.3425 8.18661V14.7368H43.6688V4.72649H46.1945L46.2685 5.91995C46.8051 5.00096 47.5483 4.54146 48.4981 4.54146C48.7942 4.54146 49.0717 4.58155 49.3308 4.66173L49.2938 7.23369Z" fill="#2E353D"/>
<path d="M70.8193 11.2026C70.8193 10.6784 70.6342 10.2775 70.2642 9.99993C69.8941 9.71621 69.228 9.42016 68.2658 9.11177C67.3037 8.79722 66.5419 8.48883 65.9807 8.18661C64.4511 7.36013 63.6863 6.24685 63.6863 4.84676C63.6863 4.11897 63.8898 3.47135 64.2969 2.90392C64.7101 2.33032 65.2991 1.88315 66.0639 1.56243C66.8349 1.24171 67.6984 1.08134 68.6544 1.08134C69.6166 1.08134 70.4739 1.25713 71.2264 1.60869C71.9788 1.95408 72.5617 2.44442 72.9749 3.0797C73.3943 3.71498 73.604 4.43661 73.604 5.24458H70.8285C70.8285 4.62781 70.6343 4.14981 70.2457 3.81058C69.8571 3.46518 69.3113 3.29249 68.6081 3.29249C67.9297 3.29249 67.4023 3.43743 67.0261 3.72731C66.6499 4.01103 66.4618 4.38726 66.4618 4.85601C66.4618 5.29393 66.6807 5.66091 67.1186 5.95696C67.5627 6.25301 68.2134 6.53056 69.0707 6.78961C70.6497 7.26453 71.8 7.85355 72.5216 8.55667C73.2432 9.2598 73.604 10.1356 73.604 11.1841C73.604 12.3498 73.163 13.2658 72.281 13.9319C71.3991 14.5918 70.2118 14.9218 68.7192 14.9218C67.683 14.9218 66.7393 14.7337 65.8882 14.3575C65.037 13.9751 64.3863 13.4539 63.9361 12.7939C63.492 12.134 63.2699 11.3692 63.2699 10.4995H66.0547C66.0547 11.9859 66.9428 12.7292 68.7192 12.7292C69.3791 12.7292 69.8941 12.5966 70.2642 12.3313C70.6342 12.06 70.8193 11.6837 70.8193 11.2026Z" fill="#2E353D"/>
<path d="M78.5166 2.26555V4.72649H80.2282V6.68784H78.5166V11.6837C78.5166 12.0538 78.5876 12.319 78.7294 12.4794C78.8713 12.6397 79.1427 12.7199 79.5436 12.7199C79.8396 12.7199 80.1018 12.6983 80.33 12.6552V14.6813C79.8057 14.8416 79.266 14.9218 78.7109 14.9218C76.8359 14.9218 75.8799 13.9751 75.8429 12.0815V6.68784H74.3812V4.72649H75.8429V2.26555H78.5166Z" fill="#2E353D"/>
<path d="M87.7128 13.7191C87.0528 14.5209 86.14 14.9218 84.9743 14.9218C83.9011 14.9218 83.0808 14.6134 82.5134 13.9966C81.9521 13.3799 81.6653 12.4763 81.653 11.2859V4.72649H84.3267V11.1934C84.3267 12.2357 84.8016 12.7569 85.7514 12.7569C86.6581 12.7569 87.281 12.4424 87.6203 11.8133V4.72649H90.3032V14.7368H87.7868L87.7128 13.7191Z" fill="#2E353D"/>
<path d="M91.9038 9.65762C91.9038 8.09717 92.2523 6.85437 92.9492 5.92921C93.6523 5.00404 94.6114 4.54146 95.8265 4.54146C96.801 4.54146 97.6059 4.90536 98.2412 5.63315V0.526245H100.924V14.7368H98.5095L98.3799 13.6728C97.7138 14.5055 96.8565 14.9218 95.808 14.9218C94.6299 14.9218 93.6832 14.4592 92.9677 13.5341C92.2584 12.6027 91.9038 11.3106 91.9038 9.65762ZM94.5775 9.8519C94.5775 10.7894 94.741 11.5079 95.0678 12.0075C95.3947 12.5071 95.8696 12.7569 96.4926 12.7569C97.3191 12.7569 97.9019 12.4084 98.2412 11.7115V7.76103C97.9081 7.06407 97.3314 6.7156 96.5111 6.7156C95.222 6.7156 94.5775 7.76103 94.5775 9.8519Z" fill="#2E353D"/>
<path d="M105.818 14.7368H103.135V4.72649H105.818V14.7368ZM102.978 2.13603C102.978 1.73513 103.111 1.40515 103.376 1.14611C103.647 0.887059 104.014 0.757536 104.477 0.757536C104.933 0.757536 105.297 0.887059 105.568 1.14611C105.84 1.40515 105.976 1.73513 105.976 2.13603C105.976 2.5431 105.837 2.87616 105.559 3.13521C105.288 3.39425 104.927 3.52378 104.477 3.52378C104.027 3.52378 103.663 3.39425 103.385 3.13521C103.114 2.87616 102.978 2.5431 102.978 2.13603Z" fill="#2E353D"/>
<path d="M107.613 9.63912C107.613 8.64611 107.804 7.76103 108.187 6.98389C108.569 6.20676 109.118 5.6054 109.833 5.17982C110.555 4.75425 111.391 4.54146 112.341 4.54146C113.691 4.54146 114.792 4.9547 115.644 5.78118C116.501 6.60766 116.979 7.73019 117.078 9.14878L117.096 9.8334C117.096 11.3692 116.667 12.6027 115.81 13.5341C114.953 14.4592 113.802 14.9218 112.359 14.9218C110.916 14.9218 109.763 14.4592 108.899 13.5341C108.042 12.6089 107.613 11.3507 107.613 9.75939V9.63912ZM110.287 9.8334C110.287 10.7832 110.466 11.511 110.823 12.0168C111.181 12.5164 111.693 12.7662 112.359 12.7662C113.007 12.7662 113.513 12.5195 113.876 12.026C114.24 11.5265 114.422 10.7308 114.422 9.63912C114.422 8.70778 114.24 7.98615 113.876 7.47423C113.513 6.96231 113.001 6.70634 112.341 6.70634C111.687 6.70634 111.181 6.96231 110.823 7.47423C110.466 7.97999 110.287 8.76638 110.287 9.8334Z" fill="#2E353D"/>
</svg>
